<svg
        xmlns="http://www.w3.org/2000/svg"
        xmlns:xlink="http://www.w3.org/1999/xlink" id="main_svg" width="1803" height="1125">
	<svg x="200">	
		<defs>
			<style>
				<![CDATA[
	body, input, textarea, select, text { font-family: "Segoe UI Web Regular", wf_segoe-ui_normal, "Segoe UI", "Segoe UI Symbol", Myriad, Calibri, UnDotum, Optima, Tahoma, "Century Gothic", "Helvetica Neue", "BBAlpha Sans", "S60 Sans", Arial, sans-serif; margin: 0px; }
	text { color: rgb(102, 102, 102); user-select: none; cursor: default; }
	.legend { margin: 0px; fill: none; position: absolute; top: 0px; left: 0px; z-index: 1; }
	.legend_rect { fill: rgb(255, 255, 255); stroke: rgb(170, 170, 170); stroke-width: 1px; }
	.legend_title { fill: rgb(102, 102, 102); font-size: 12px; font-weight: bolder; font-stretch: expanded; }
	.legend_element_g text { fill: rgb(102, 102, 102); font-size: 12px; cursor: pointer; }
	.time_elapsed { fill: rgb(170, 170, 170); stroke: rgb(170, 170, 170); stroke-width: 0.5px; }
	.timeline_frame { fill: transparent; opacity: 0.1; stroke: none; }
	.timeline_facet_frame { fill: none; stroke: rgb(153, 153, 153); stroke-width: 0.5px; }
	.x_axis path, .interim_duration_axis path, .timeline_axis path { fill: none; stroke: rgb(153, 153, 153); stroke-width: 1px; z-index: -1; }
	.radial_axis_tick path { fill: none; stroke: rgb(153, 153, 153); stroke-width: 1px; z-index: -1; }
	.x_axis line, .interim_duration_axis line, .timeline_axis line { fill: none; stroke: rgb(153, 153, 153); shape-rendering: crispEdges; stroke-width: 1px; stroke-dasharray: 2; z-index: -1; }
	.x_axis text, .interim_duration_axis text, .timeline_axis text { font-size: 12px; z-index: 1; }
	.event_span, .event_span_component { stroke-width: 15px; cursor: pointer; }
	.start_end_label, .radial_axis_tick, .weekday_label { font-size: 12px; }
	.facet_title, .segment_title { font-size: 13px; font-weight: bold; font-stretch: extra-expanded; }
	.rad_track { stroke: rgb(153, 153, 153); stroke-width: 1px; fill: none; z-index: -1; }
	.time_elapsed { stroke: rgb(170, 170, 170); stroke-width: 0.5px; fill: rgb(204, 204, 204); }
	.path_end_indicator { fill: none; stroke: rgb(255, 255, 255); }
	#timecurve { fill: none; stroke-width: 10px; stroke: rgb(119, 119, 119); opacity: 0.2; transition: all 0.5s ease; }

	]]>
			</style>
		</defs>
		<defs>
			<filter id="drop-shadow" width="200%" height="200%" x="0" y="0">
				<feOffset dx="2.5" dy="2.5" in="SourceAlpha" result="offOut"/>
				<feGaussianBlur in="offOut" result="blurOut" stdDeviation="2.5"/>
				<feBlend in="SourceGraphic" in2="blurOut"/>
			</filter>
			<filter id="greyscale">
				<feColorMatrix values="0.4444 0.4444 0.4444 0 0 0.4444 0.4444 0.4444 0 0 0.4444 0.4444 0.4444 0 0 0 0 0 1 0"/>
			</filter>
		</defs>
		<g class="timeline" transform="scale(0.8, 0.8)" >
			<rect width="1703" height="920" stroke-width=".5" class="timeline_frame" cursor="auto" opacity=".1"/>
			<g class="timeline_facet">
				<text class="facet_title" dy="-.5em" text-anchor="middle" transform="translate(851.5 40)">
					Performance
				</text>
				<g class="faceted_radial_axis">
					<g class="radial_tracks" transform="translate(0 25)">
						<path id="rad_track0" d="M0-177.5a177.5 177.5 0 1 1-52.319 7.886" class="rad_track QNXttvHX_2" transform="translate(851.5 460)"/>
					</g>
					<g class="radial_tracks" transform="translate(0 25)">
						<path id="rad_track1" d="M0-200a200 200 0 1 1-58.951 8.885" class="rad_track QNXttvHX_2" transform="translate(851.5 460)"/>
					</g>
					<g class="radial_tracks" transform="translate(0 25)">
						<path id="rad_track2" d="M0-222.5a222.5 222.5 0 1 1-65.583 9.885" class="rad_track QNXttvHX_2" transform="translate(851.5 460)"/>
					</g>
					<g class="radial_tracks" transform="translate(0 25)">
						<path id="rad_track3" d="M0-245a245 245 0 1 1-72.215 10.885" class="rad_track QNXttvHX_2" transform="translate(851.5 460)"/>
					</g>
					<g class="radial_tracks" transform="translate(0 25)">
						<path id="rad_track4" d="M0-267.5a267.5 267.5 0 1 1-78.847 11.884" class="rad_track QNXttvHX_2" transform="translate(851.5 460)"/>
					</g>
					<g class="radial_tracks" transform="translate(0 25)">
						<path id="rad_track5" d="M0-290a290 290 0 1 1-85.479 12.884" class="rad_track QNXttvHX_2" transform="translate(851.5 460)"/>
					</g>
					<g class="radial_tracks" transform="translate(0 25)">
						<path id="rad_track6" d="M0-312.5a312.5 312.5 0 1 1-92.111 13.883" class="rad_track QNXttvHX_2" transform="translate(851.5 460)"/>
					</g>
					<g class="radial_tracks" transform="translate(0 25)">
						<path id="rad_track7" d="M0-335a335 335 0 1 1-98.743 14.883" class="rad_track QNXttvHX_2" transform="translate(851.5 460)"/>
					</g>
					<g class="radial_tracks" transform="translate(0 25)">
						<path id="rad_track8" d="M0-357.5a357.5 357.5 0 1 1-105.375 15.883" class="rad_track QNXttvHX_2" transform="translate(851.5 460)"/>
					</g>
					<g class="radial_tracks" transform="translate(0 25)">
						<path id="rad_track9" d="M0-380a380 380 0 1 1-112.007 16.882" class="rad_track QNXttvHX_2" transform="translate(851.5 460)"/>
					</g>
					<g class="radial_tracks" transform="translate(0 25)">
						<path id="rad_track10" d="M0-402.5a402.5 402.5 0 1 1-118.639 17.882" class="rad_track QNXttvHX_2" transform="translate(851.5 460)"/>
					</g>
					<g class="radial_axis_tick">
						<path d="M0-421.25v243.75z" class="radial_axis_tick_path QNXttvHX_3" transform="translate(851.5 485)"/>
						<text y="-432.5" class="radial_axis_tick_label" dominant-baseline="central" text-anchor="middle" transform="translate(851.5 485)">
							0 score
						</text>
					</g>
					<g class="radial_axis_tick">
						<path d="M392.132-153.897L165.23-64.847z" class="radial_axis_tick_path QNXttvHX_4" transform="translate(851.5 485)"/>
						<text x="402.604" y="-158.007" class="radial_axis_tick_label" dominant-baseline="central" text-anchor="middle" transform="rotate(68.572 472.674 708.949)">
							200 score
						</text>
					</g>
					<g class="radial_axis_tick">
						<path d="M286.524 308.797L120.73 130.117z" class="radial_axis_tick_path QNXttvHX_5" transform="translate(851.5 485)"/>
						<text x="294.176" y="317.044" class="radial_axis_tick_label" dominant-baseline="central" text-anchor="middle" transform="rotate(-42.857 1337.803 -525.244)">
							400 score
						</text>
					</g>
					<g class="radial_axis_tick">
						<path d="M-182.775 379.533l105.76-219.611z" class="radial_axis_tick_path QNXttvHX_6" transform="translate(851.5 485)"/>
						<text x="-187.656" y="389.668" class="radial_axis_tick_label" dominant-baseline="central" text-anchor="middle" transform="rotate(25.714 -824.36 2497.487)">
							600 score
						</text>
					</g>
					<g class="radial_axis_tick">
						<path d="M-420.072-31.477l243.068 18.214z" class="radial_axis_tick_path QNXttvHX_7" transform="translate(851.5 485)"/>
						<text x="-431.291" y="-32.318" class="radial_axis_tick_label" dominant-baseline="central" text-anchor="middle" transform="rotate(-85.715 255.81 -248.664)">
							800 score
						</text>
					</g>
					<g class="radial_axis_tick">
						<path d="M-124.166-402.535l71.847 232.92z" class="radial_axis_tick_path QNXttvHX_8" transform="translate(851.5 485)"/>
						<text x="-127.482" y="-413.285" class="radial_axis_tick_label" dominant-baseline="central" text-anchor="middle" transform="rotate(-17.143 1907.151 -2995.453)">
							1000 score
						</text>
					</g>
				</g>
			</g>
			<g id="event_g4" class="timeline_event_g">
				<path onmouseover="showLabel(evt, 1)" onmouseout="hideLabel(evt,1)" fill="none" stroke="rgb(228, 86, 65)" d="M0-237.5a237.5 237.5 0 0 1 205.218 357.048" class="event_span QNXttvHX_9" pointer-events="inherit" transform="translate(851.5 485)"/>
				<text text-anchor="end" transform="translate(851.5, 247.5)" id="event_text_1" style="opacity:0;">Arxive ></text>
			</g>
			<g id="event_g11" class="timeline_event_g">
				<path onmouseover="showLabel(evt, 2)" onmouseout="hideLabel(evt,2)" fill="none" stroke="rgb(228, 86, 65)" d="M851.5 225a260 260 0 0 1 259.358 241.733" class="event_span QNXttvHX_9" filter="none" pointer-events="inherit"/>
				<text text-anchor="end" transform="translate(851.5, 225)" id="event_text_2" style="opacity:0;">Employee 0 ></text>
			</g>
			<g id="event_g7" class="timeline_event_g">
				<path onmouseover="showLabel(evt, 3)" onmouseout="hideLabel(evt,3)" fill="none" stroke="rgb(228, 86, 65)" d="M0-282.5a282.5 282.5 0 0 1 221.76 107.49" class="event_span QNXttvHX_9" pointer-events="inherit" transform="translate(851.5 485)"/>
				<text text-anchor="end" transform="translate(851.5, 202.5)" id="event_text_3" style="opacity:0;">Employer A ></text>
			</g>
			<g id="event_g6" class="timeline_event_g">
				<path onmouseover="showLabel(evt, 4)" onmouseout="hideLabel(evt,4)" fill="none" stroke="rgb(228, 86, 65)" d="M0-305a305 305 0 0 1 239.423 116.051" class="event_span QNXttvHX_9" pointer-events="inherit" transform="translate(851.5 485)"/>
				<text text-anchor="end" transform="translate(851.5, 180)" id="event_text_4" style="opacity:0;">Company A ></text>
			</g>
			<g id="event_g10" class="timeline_event_g">
				<path onmouseover="showLabel(evt, 5)" onmouseout="hideLabel(evt,5)" fill="none" stroke="rgb(228, 86, 65)" d="M0-327.5a327.5 327.5 0 0 1 185.943 57.905" class="event_span QNXttvHX_9" pointer-events="inherit" transform="translate(851.5 485)"/>
				<text text-anchor="end" transform="translate(851.5, 157.5)" id="event_text_5" style="opacity:0;">Company B ></text>
			</g>
			<g id="event_g9" class="timeline_event_g">
				<path onmouseover="showLabel(evt, 6)" onmouseout="hideLabel(evt,6)" fill="none" stroke="rgb(228, 86, 65)" d="M0-350a350 350 0 0 1 105.065 16.142" class="event_span QNXttvHX_9" transform="translate(851.5 485)"/>
				<text text-anchor="end" transform="translate(851.5, 135)" id="event_text_6" style="opacity:0;">Employee 1 ></text>
			</g>
			<g id="event_g8" class="timeline_event_g">
				<path onmouseover="showLabel(evt, 7)" onmouseout="hideLabel(evt,7)" fill="none" stroke="rgb(228, 86, 65)" d="M0-372.5a372.5 372.5 0 0 1 111.82 17.18" class="event_span QNXttvHX_9" transform="translate(851.5 485)"/>
				<text text-anchor="end" transform="translate(851.5, 112.5)" id="event_text_7" style="opacity:0;">Medium ></text>
			</g>
			<g id="event_g5" class="timeline_event_g">
				<path onmouseover="showLabel(evt, 8)" onmouseout="hideLabel(evt,8)" fill="none" stroke="rgb(228, 86, 65)" d="M0-395a395 395 0 0 1 118.574 18.217" class="event_span QNXttvHX_9" transform="translate(851.5 485)"/>
				<text text-anchor="end" transform="translate(851.5, 90)" id="event_text_8" style="opacity:0;">Company C ></text>
			</g>
		</g>

		<svg onclick="location.href = '1_index.svg';" id="legend_panel" width="144" height="175" y="20" x="20" class="legend">
			<rect width="119" height="135" class="legend_rect" filter="none"/>
			<g class="legend_element_g" transform="translate(0 57.5)">
				<rect width="15" height="15" x="5" y="2" fill="rgb(68, 179, 194)" class="legend_element" transform="translate(0 -35)"/>
				<text x="25" y="10" class="legend_element" dy="3" transform="translate(0 -35)">
					IDENTITY
				</text>
			</g>
			<g class="legend_element_g" transform="translate(0 80)">
				<rect width="15" height="15" x="5" y="2" fill="rgb(228, 86, 65)" class="legend_element" transform="translate(0 -35)"/>
				<text x="25" y="10" class="legend_element" dy="3" transform="translate(0 -35)">
					PERFORMANCE
				</text>
			</g>
			<g class="legend_element_g" transform="translate(0 102.5)">
				<rect width="15" height="15" x="5" y="2" fill="rgb(219, 201, 24)" stroke="rgb(255, 255, 255)" class="legend_element" transform="translate(0 -35)"/>
				<text x="25" y="10" fill="rgb(102, 102, 102)" class="legend_element" dy="3" transform="translate(0 -35)">
					REPUTATION
				</text>
			</g>
			<g class="legend_element_g" transform="translate(0 125)">
				<rect width="15" height="15" x="5" y="2" fill="rgb(107, 103, 99)" stroke="rgb(255, 255, 255)" class="legend_element" transform="translate(0 -35)"/>
				<text x="25" y="10" fill="rgb(102, 102, 102)" class="legend_element" dy="3" transform="translate(0 -35)">
					TOTAL
				</text>
			</g>
			<g class="legend_element_g" transform="translate(0 147.5)">
				<rect width="15" height="15" x="5" y="2" fill="rgb(37, 209, 25)" stroke="rgb(255, 255, 255)" class="legend_element" transform="translate(0 -35)"/>
				<text x="25" y="10" fill="rgb(102, 102, 102)" class="legend_element" dy="3" transform="translate(0 -35)">
					VERIFIED
				</text>
			</g>
			<text class="legend_title" dx="0em" dy="1.4em" transform="translate(5)">
				LEGEND
			</text>
		</svg>

		<script type="text/ecmascript">
		<![CDATA[

			var data = {};

			function showLabel(evt, id) {
				var svgobj=evt.target;
				var text = document.getElementById("event_text_"+id);

				if(id in data){
					if(data[id] == 1){
						
					}
					else{
						text.style.opacity=1;
						data[id] = 1;
					}
				}

				else {
					text.style.opacity=1;
					data[id] = 1;
				}
			}
			
			function hideLabel(evt, id) {
				var text = document.getElementById("event_text_"+id);
				
				if(id in data){
					if(data[id] == 1){
						text.style.opacity=0;
						data[id] = 0;
					}
					else{
						
					}
				}

				else {
					
				}
			}
		]]>
		</script>

		<style>
		.QNXttvHX_0{
		stroke-dasharray:1888 1890;
		stroke-dashoffset:1889;
		animation:QNXttvHX_draw 5000ms ease-out 0ms forwards;
		}

		.QNXttvHX_1{
		stroke-dasharray:2127 2129;
		stroke-dashoffset:2128;
		animation:QNXttvHX_draw 5000ms ease-out 114ms forwards;
		}

		.QNXttvHX_2{
		stroke-dasharray:2999 3001;
		stroke-dashoffset:3000;
		animation:QNXttvHX_draw 5000ms ease-out 228ms forwards;
		}

		.QNXttvHX_3{
			stroke-dasharray:499 501;
			stroke-dashoffset:500;
		animation:QNXttvHX_draw 500ms ease-out 0ms forwards;
		}

		.QNXttvHX_4{
			stroke-dasharray:499 501;
			stroke-dashoffset:500;
		animation:QNXttvHX_draw 500ms ease-out 500ms forwards;
		}

		.QNXttvHX_5{
			stroke-dasharray:499 501;
			stroke-dashoffset:500;
		animation:QNXttvHX_draw 500ms ease-out 1000ms forwards;
		}

		.QNXttvHX_6{
			stroke-dasharray:499 501;
			stroke-dashoffset:500;
		animation:QNXttvHX_draw 500ms ease-out 1500ms forwards;
		}

		.QNXttvHX_7{
			stroke-dasharray:499 501;
			stroke-dashoffset:500;
		animation:QNXttvHX_draw 500ms ease-out 2000ms forwards;
		}

		.QNXttvHX_8{
			stroke-dasharray:499 501;
			stroke-dashoffset:500;
		animation:QNXttvHX_draw 500ms ease-out 2500ms forwards;
		}

		.QNXttvHX_9{
		stroke-dasharray:2038 2040;
		stroke-dashoffset:2039;
		animation:QNXttvHX_draw 5000ms ease-out 1026ms forwards;
		}

		.QNXttvHX_10{
		stroke-dasharray:2038 2040;
		stroke-dashoffset:2039;
		animation:QNXttvHX_draw 5000ms ease-out 1140ms forwards;
		}

		.QNXttvHX_11{
		stroke-dasharray:2038 2040;
		stroke-dashoffset:2039;
		animation:QNXttvHX_draw 5000ms ease-out 1254ms forwards;
		}

		.QNXttvHX_12{
		stroke-dasharray:2038 2040;
		stroke-dashoffset:2039;
		animation:QNXttvHX_draw 5000ms ease-out 1368ms forwards;
		}

		@keyframes QNXttvHX_draw{
		100%{stroke-dashoffset:0;}
		}

		@keyframes QNXttvHX_fade{
		0%{stroke-opacity:1;}
		96.26168224299066%{stroke-opacity:1;}
		100%{stroke-opacity:0;}
		}
		</style>
	</svg>
</svg>
