<svg version="1.1" width="189" height="59" viewBox="0 0 189 59" xmlns="http://www.w3.org/2000/svg" xmlns:xlink="http://www.w3.org/1999/xlink" overflow="hidden">
    <defs></defs>
    <g id="1" stroke="none" stroke-width="1" fill="none" fill-rule="evenodd" transform="matrix(1,0,0,1,-218,-222)">
        <g id="Logos-/-Tiiqu_White" transform="matrix(1,0,0,1,210,213)">
            <g id="Logo" transform="matrix(1,0,0,1,8.24742,9.08696)">
                <g id="Logos-/-Tiiqu_Text_White" fill="#000000" transform="matrix(1,0,0,1,0,9.08696)">
                    <path d=" M 33.7338 10.527 L 22.3403 10.527 L 22.3403 40.4459 L 11.4494 40.4459 L 11.4494 10.527 L 0 10.527 L 0 1.10811 L 33.7338 1.10811 L 33.7338 10.527 Z M 36.9731 40.4459 L 36.9731 11.3027 L 47.5848 11.3027 L 47.5848 40.4459 L 36.9731 40.4459 Z M 36.9731 8.86487 L 36.9731 0 L 47.5848 0 L 47.5848 8.86487 L 36.9731 8.86487 Z M 52.9464 40.4459 L 52.9464 11.3027 L 63.558 11.3027 L 63.558 40.4459 L 52.9464 40.4459 Z M 52.9464 8.86487 L 52.9464 0 L 63.558 0 L 63.558 8.86487 L 52.9464 8.86487 Z M 96.5099 38.5622 C 95.1323 39.264 93.6709 39.7995 92.1256 40.1689 C 90.5804 40.5383 88.9515 40.723 87.2387 40.723 C 84.2228 40.723 81.4861 40.1597 79.0287 39.0331 C 76.5712 37.9065 74.4675 36.4106 72.7175 34.5453 C 70.9676 32.6799 69.6085 30.5469 68.6404 28.1459 C 67.6724 25.745 67.1883 23.2703 67.1883 20.7216 C 67.1883 18.136 67.691 15.6428 68.6963 13.2419 C 69.7016 10.841 71.1072 8.71713 72.913 6.87027 C 74.7189 5.02341 76.8598 3.55519 79.3358 2.46554 C 81.8119 1.3759 84.5206 0.831081 87.4621 0.831081 C 90.4781 0.831081 93.2147 1.41283 95.6722 2.57635 C 98.1296 3.73987 100.233 5.2635 101.983 7.1473 C 103.733 9.03109 105.083 11.1734 106.032 13.5743 C 106.982 15.9752 107.457 18.4315 107.457 20.9432 C 107.457 23.3811 107.019 25.7173 106.144 27.952 C 105.269 30.1867 104.031 32.1905 102.43 33.9635 L 108.462 40.4459 L 98.2971 40.4459 L 96.5099 38.5622 Z M 87.3504 31.1378 C 88.1696 31.1378 88.8584 31.064 89.4169 30.9162 L 82.8824 23.8243 L 93.0472 23.8243 L 95.2254 26.2068 C 95.6349 25.3572 95.9328 24.4707 96.119 23.5473 C 96.3051 22.6239 96.3982 21.682 96.3982 20.7216 C 96.3982 19.3919 96.2121 18.1083 95.8397 16.8709 C 95.4674 15.6336 94.8996 14.5347 94.1363 13.5743 C 93.373 12.614 92.4235 11.8475 91.2879 11.275 C 90.1523 10.7025 88.8212 10.4162 87.2946 10.4162 C 85.7307 10.4162 84.381 10.7209 83.2454 11.3304 C 82.1098 11.9399 81.1696 12.734 80.4249 13.7128 C 79.6803 14.6917 79.1311 15.7998 78.7773 17.0372 C 78.4236 18.2746 78.2468 19.5396 78.2468 20.8324 C 78.2468 22.1622 78.4329 23.4457 78.8053 24.6831 C 79.1776 25.9205 79.7361 27.0194 80.4808 27.9797 C 81.2255 28.9401 82.1656 29.7065 83.3012 30.2791 C 84.4369 30.8516 85.7866 31.1378 87.3504 31.1378 Z M 120.246 41 C 117.268 41 114.996 40.1043 113.433 38.3128 C 111.869 36.5214 111.087 33.9081 111.087 30.473 L 111.087 11.3027 L 121.699 11.3027 L 121.699 28.0905 C 121.699 29.3833 121.987 30.3806 122.564 31.0824 C 123.141 31.7842 123.933 32.1351 124.938 32.1351 C 125.757 32.1351 126.595 31.9505 127.451 31.5811 C 128.308 31.2117 129.164 30.3991 130.02 29.1432 L 130.02 11.3027 L 140.632 11.3027 L 140.632 28.8108 C 140.632 29.8081 140.781 30.5007 141.079 30.8885 C 141.377 31.2764 141.898 31.5072 142.643 31.5811 L 142.643 40.4459 C 140.818 40.8153 139.329 41 138.174 41 C 134.563 41 132.478 39.6518 131.919 36.9554 L 131.696 35.9027 C 130.318 37.7126 128.68 39.0146 126.781 39.8088 C 124.882 40.6029 122.704 41 120.246 41 Z" id="TiiQu"/>
                </g>
                <g id="Logos-/-Tiiqu_Icon_White" fill="#18E1C9" transform="matrix(1,0,0,1,151.34,0)">
                    <path d=" M 26.8146 31.5756 L 26.8146 26.4037 C 29.4902 26.1934 31.5955 23.9707 31.5955 21.2598 C 31.5955 18.4099 29.2689 16.0996 26.3989 16.0996 C 23.5289 16.0996 21.2022 18.4099 21.2022 21.2598 L 21.2022 31.5801 L 21.2022 39.5267 L 21.2022 58 L 16.0056 58 L 16.0056 36.9466 C 16.0056 34.0968 13.679 31.7865 10.809 31.7865 C 7.93897 31.7865 5.61236 34.0968 5.61236 36.9466 C 5.61236 39.6575 7.71762 41.8802 10.3933 42.0905 L 10.3933 47.4713 C 4.63436 47.3614 0 42.6914 0 36.9466 C 0 31.1329 4.74628 26.4199 10.6011 26.4199 C 12.5751 26.4199 14.4231 26.9557 16.0056 27.8887 L 16.0056 19.704 L 16.0056 10.5267 C 16.0056 7.67682 13.679 5.36655 10.809 5.36655 C 7.93897 5.36655 5.61236 7.67682 5.61236 10.5267 C 5.61236 13.2376 7.71762 15.4603 10.3933 15.6706 L 10.3933 21.0454 C 4.73111 20.8286 0.207865 16.2022 0.207865 10.5267 C 0.207865 4.71296 4.95415 0 10.809 0 C 16.6638 0 21.4101 4.71296 21.4101 10.5267 L 21.4101 12.0398 C 22.9184 11.2073 24.6548 10.7331 26.5028 10.7331 C 32.3002 10.7331 37 15.3999 37 21.1566 C 37 26.8098 32.4678 31.4118 26.8146 31.5756 Z" id="Tiiqu-Icon-Flat"/>
                </g>
            </g>
        </g>
    </g>
</svg>